Coordinates
version=1
nRows=17
nColumns=23
inDegrees=yes

Units are S.I. units (second, meters, Newtons, ...)
If the header above contains a line with 'inDegrees', this indicates whether rotational values are in degrees (yes) or radians (no).

endheader
time	pelvis_tilt	pelvis_list	pelvis_rotation	pelvis_tx	pelvis_ty	pelvis_tz	hip_flexion_r	hip_adduction_r	hip_rotation_r	knee_angle_r	knee_angle_r_beta	ankle_angle_r	subtalar_angle_r	mtp_angle_r	hip_flexion_l	hip_adduction_l	hip_rotation_l	knee_angle_l	knee_angle_l_beta	ankle_angle_l	subtalar_angle_l	mtp_angle_l
     15.00000000	     -4.03109843	     -4.45362354	    -10.51974844	      2.37276701	      1.01063530	      1.07640983	     30.39804966	     13.20563374	     -0.00851457	     16.49277983	      0.28785331	      4.70368421	     -2.35262588	      0.00000000	    -17.63865759	     -4.04455994	    -17.65303686	     81.72004226	      1.42628380	    -15.09195590	    -12.92923727	      0.00000000
     15.00666667	     -3.91843659	     -4.85801835	    -10.98770677	      2.37081991	      1.00536327	      1.07628307	     31.01734899	     13.42644825	     -1.10238169	     20.34296771	      0.35505177	      3.45777492	     -3.22996959	      0.00000000	    -16.23430520	     -4.75806736	    -17.60890586	     86.09919664	      1.50271446	    -14.74257171	    -13.80617750	      0.00000000
     15.01333333	     -3.87637475	     -5.13496659	    -11.50384734	      2.36859782	      0.99974855	      1.07608624	     31.81540393	     13.50832680	     -2.02589314	     24.54693365	      0.42842481	      2.73049157	     -4.03792939	      0.00000000	    -14.66302566	     -5.38421633	    -17.57188016	     90.31559431	      1.57630449	    -14.32067846	    -14.67992961	      0.00000000
     15.02000000	     -3.88940216	     -5.45627575	    -11.95399236	      2.36622704	      0.99406638	      1.07576774	     32.57116209	     13.64419819	     -2.64220656	     28.69532046	      0.50082782	      2.31115865	     -5.16361115	      0.00000000	    -12.96159838	     -6.17994319	    -17.49509813	     94.39001350	      1.64741652	    -13.66652219	    -15.25789206	      0.00000000
     15.02666667	     -3.97087824	     -5.65192087	    -12.41633148	      2.36359647	      0.98837991	      1.07537334	     33.36500498	     13.71363615	     -2.94471298	     32.89262698	      0.57408464	      2.75118737	     -6.07922212	      0.00000000	    -11.04596045	     -6.87528534	    -17.32648060	     98.26384163	      1.71502757	    -13.00029928	    -15.85575580	      0.00000000
     15.03333333	     -4.10588479	     -5.84695777	    -12.80297588	      2.36083663	      0.98293469	      1.07491359	     34.02326451	     13.82544818	     -3.00227764	     36.83448649	      0.64288307	      3.82033037	     -6.85514336	      0.00000000	     -8.94643497	     -7.66391455	    -17.03343742	    101.93888426	      1.77916917	    -12.22561940	    -16.19204473	      0.00000000
     15.04000000	     -3.66969742	     -6.63764636	    -12.92791627	      2.35822723	      0.97909299	      1.07414067	     33.56042281	     14.36719924	     -3.03092516	     40.06002153	      0.69917927	      5.30439307	     -7.71986061	      0.00000000	     -7.50249088	     -9.11033997	    -16.56965329	    105.28963621	      1.83765082	    -11.49878751	    -16.44773683	      0.00000000
     15.04666667	     -4.36417040	     -6.38931328	    -13.30629475	      2.35491129	      0.97361602	      1.07370960	     34.51196247	     14.22290187	     -2.68488054	     43.52791494	      0.75970543	      7.35587104	     -7.78195623	      0.00000000	     -4.31594409	     -9.56814595	    -15.91536401	    108.58316325	      1.89513371	    -10.41064959	    -16.03129466	      0.00000000
     15.05333333	     -4.55913568	     -6.59697791	    -13.42499587	      2.35180770	      0.96977605	      1.07303845	     34.38932784	     14.36781318	     -2.35098614	     46.19375761	      0.80623316	      9.71052345	     -7.80087442	      0.00000000	     -1.64244173	    -10.48891709	    -15.04429935	    111.48059584	      1.94570345	     -9.48990216	    -15.70967563	      0.00000000
     15.06000000	     -4.76597830	     -6.87866256	    -13.40828324	      2.34878861	      0.96666522	      1.07233049	     33.90730980	     14.55920536	     -1.98605378	     48.26753623	      0.84242743	     12.14231101	     -7.72873196	      0.00000000	      1.20043886	    -11.50761489	    -13.93471060	    114.05575363	      1.99064843	     -8.50042653	    -15.06093097	      0.00000000
     15.06666667	     -5.06480885	     -6.91983700	    -13.28762509	      2.34576718	      0.96405066	      1.07156769	     33.28993446	     14.49060120	     -1.53989446	     49.93594924	      0.87154673	     14.72027684	     -7.38287930	      0.00000000	      4.41141222	    -12.18013675	    -12.60171698	    116.26837379	      2.02926594	     -7.50860332	    -14.35764190	      0.00000000
     15.07333333	     -5.39194701	     -6.95082741	    -13.03440395	      2.34299134	      0.96211567	      1.07089943	     32.38550511	     14.35432946	     -1.16082185	     51.09020272	      0.89169225	     17.26452082	     -6.92173962	      0.00000000	      7.78921757	    -12.80773077	    -11.10374189	    118.07566359	      2.06080910	     -6.53889431	    -13.48906466	      0.00000000
     15.08000000	     -5.58884042	     -7.14795351	    -12.59270203	      2.34051968	      0.96112689	      1.07022513	     30.96919854	     14.30999782	     -0.84653360	     51.61854958	      0.90091365	     19.48918432	     -6.59241451	      0.00000000	     11.10111856	    -13.48746886	     -9.38292988	    119.46274324	      2.08501820	     -5.53068368	    -12.45215560	      0.00000000
     15.08666667	     -5.85467914	     -7.11306328	    -12.08435232	      2.33833399	      0.96063225	      1.06965870	     29.45312820	     13.96030011	     -0.64273722	     51.82500541	      0.90451698	     21.71309775	     -5.89405427	      0.00000000	     14.59637673	    -13.80286403	     -7.68074806	    120.39520522	      2.10129273	     -4.53865909	    -11.38137044	      0.00000000
     15.09333333	     -5.99038986	     -7.19798846	    -11.40258553	      2.33675267	      0.96098323	      1.06916016	     27.48701836	     13.68634086	     -0.52217888	     51.49908892	      0.89882866	     23.49050551	     -5.51897737	      0.00000000	     17.90133720	    -14.08155797	     -5.90038055	    120.85063590	      2.10924150	     -3.58266946	    -10.35711557	      0.00000000
     15.10000000	     -6.09463822	     -7.14880656	    -10.68415653	      2.33558863	      0.96192728	      1.06875917	     25.30890203	     13.27144893	     -0.41017783	     50.82915456	      0.88713610	     25.02924612	     -5.13251388	      0.00000000	     21.11380775	    -14.07675373	     -4.28295593	    120.83495732	      2.10896786	     -2.64775210	     -9.45017888	      0.00000000
     15.10666667	     -6.20151640	     -7.04203742	     -9.84171785	      2.33498938	      0.96337354	      1.06832871	     22.97066206	     12.76212532	     -0.44187813	     49.83349444	      0.86975856	     26.19953289	     -4.61219573	      0.00000000	     24.22742401	    -13.82069099	     -2.73862758	    120.37955326	      2.10101956	     -1.65604829	     -8.57024049	      0.00000000
